<svg width="256" height="256" viewBox="0 0 256 256" fill="none" xmlns="http://www.w3.org/2000/svg">
<path d="M0 0H4V4H0V0Z" fill="black"/>
<path d="M28 0H32V4H28V0Z" fill="black"/>
<path d="M56 0H60V4H56V0Z" fill="black"/>
<path d="M84 0H88V4H84V0Z" fill="black"/>
<path d="M112 0H116V4H112V0Z" fill="black"/>
<path d="M140 0H144V4H140V0Z" fill="black"/>
<path d="M168 0H172V4H168V0Z" fill="black"/>
<path d="M196 0H200V4H196V0Z" fill="black"/>
<path d="M224 0H228V4H224V0Z" fill="black"/>
<path d="M252 0H256V4H252V0Z" fill="black"/>
<path d="M0 28H4V32H0V28Z" fill="black"/>
<path d="M28 28H32V32H28V28Z" fill="black"/>
<path d="M56 28H60V32H56V28Z" fill="black"/>
<path d="M84 28H88V32H84V28Z" fill="black"/>
<path d="M112 28H116V32H112V28Z" fill="black"/>
<path d="M140 28H144V32H140V28Z" fill="black"/>
<path d="M168 28H172V32H168V28Z" fill="black"/>
<path d="M196 28H200V32H196V28Z" fill="black"/>
<path d="M224 28H228V32H224V28Z" fill="black"/>
<path d="M252 28H256V32H252V28Z" fill="black"/>
<path d="M0 56H4V60H0V56Z" fill="black"/>
<path d="M28 56H32V60H28V56Z" fill="black"/>
<path d="M56 56H60V60H56V56Z" fill="black"/>
<path d="M84 56H88V60H84V56Z" fill="black"/>
<path d="M112 56H116V60H112V56Z" fill="black"/>
<path d="M140 56H144V60H140V56Z" fill="black"/>
<path d="M168 56H172V60H168V56Z" fill="black"/>
<path d="M196 56H200V60H196V56Z" fill="black"/>
<path d="M224 56H228V60H224V56Z" fill="black"/>
<path d="M252 56H256V60H252V56Z" fill="black"/>
<path d="M0 84H4V88H0V84Z" fill="black"/>
<path d="M28 84H32V88H28V84Z" fill="black"/>
<path d="M56 84H60V88H56V84Z" fill="black"/>
<path d="M84 84H88V88H84V84Z" fill="black"/>
<path d="M112 84H116V88H112V84Z" fill="black"/>
<path d="M140 84H144V88H140V84Z" fill="black"/>
<path d="M168 84H172V88H168V84Z" fill="black"/>
<path d="M196 84H200V88H196V84Z" fill="black"/>
<path d="M224 84H228V88H224V84Z" fill="black"/>
<path d="M252 84H256V88H252V84Z" fill="black"/>
<path d="M0 112H4V116H0V112Z" fill="black"/>
<path d="M28 112H32V116H28V112Z" fill="black"/>
<path d="M56 112H60V116H56V112Z" fill="black"/>
<path d="M84 112H88V116H84V112Z" fill="black"/>
<path d="M112 112H116V116H112V112Z" fill="black"/>
<path d="M140 112H144V116H140V112Z" fill="black"/>
<path d="M168 112H172V116H168V112Z" fill="black"/>
<path d="M196 112H200V116H196V112Z" fill="black"/>
<path d="M224 112H228V116H224V112Z" fill="black"/>
<path d="M252 112H256V116H252V112Z" fill="black"/>
<path d="M0 140H4V144H0V140Z" fill="black"/>
<path d="M28 140H32V144H28V140Z" fill="black"/>
<path d="M56 140H60V144H56V140Z" fill="black"/>
<path d="M84 140H88V144H84V140Z" fill="black"/>
<path d="M112 140H116V144H112V140Z" fill="black"/>
<path d="M140 140H144V144H140V140Z" fill="black"/>
<path d="M168 140H172V144H168V140Z" fill="black"/>
<path d="M196 140H200V144H196V140Z" fill="black"/>
<path d="M224 140H228V144H224V140Z" fill="black"/>
<path d="M252 140H256V144H252V140Z" fill="black"/>
<path d="M0 168H4V172H0V168Z" fill="black"/>
<path d="M28 168H32V172H28V168Z" fill="black"/>
<path d="M56 168H60V172H56V168Z" fill="black"/>
<path d="M84 168H88V172H84V168Z" fill="black"/>
<path d="M112 168H116V172H112V168Z" fill="black"/>
<path d="M140 168H144V172H140V168Z" fill="black"/>
<path d="M168 168H172V172H168V168Z" fill="black"/>
<path d="M196 168H200V172H196V168Z" fill="black"/>
<path d="M224 168H228V172H224V168Z" fill="black"/>
<path d="M252 168H256V172H252V168Z" fill="black"/>
<path d="M0 196H4V200H0V196Z" fill="black"/>
<path d="M28 196H32V200H28V196Z" fill="black"/>
<path d="M56 196H60V200H56V196Z" fill="black"/>
<path d="M84 196H88V200H84V196Z" fill="black"/>
<path d="M112 196H116V200H112V196Z" fill="black"/>
<path d="M140 196H144V200H140V196Z" fill="black"/>
<path d="M168 196H172V200H168V196Z" fill="black"/>
<path d="M196 196H200V200H196V196Z" fill="black"/>
<path d="M224 196H228V200H224V196Z" fill="black"/>
<path d="M252 196H256V200H252V196Z" fill="black"/>
<path d="M0 224H4V228H0V224Z" fill="black"/>
<path d="M28 224H32V228H28V224Z" fill="black"/>
<path d="M56 224H60V228H56V224Z" fill="black"/>
<path d="M84 224H88V228H84V224Z" fill="black"/>
<path d="M112 224H116V228H112V224Z" fill="black"/>
<path d="M140 224H144V228H140V224Z" fill="black"/>
<path d="M168 224H172V228H168V224Z" fill="black"/>
<path d="M196 224H200V228H196V224Z" fill="black"/>
<path d="M224 224H228V228H224V224Z" fill="black"/>
<path d="M252 224H256V228H252V224Z" fill="black"/>
<path d="M0 252H4V256H0V252Z" fill="black"/>
<path d="M28 252H32V256H28V252Z" fill="black"/>
<path d="M56 252H60V256H56V252Z" fill="black"/>
<path d="M84 252H88V256H84V252Z" fill="black"/>
<path d="M112 252H116V256H112V252Z" fill="black"/>
<path d="M140 252H144V256H140V252Z" fill="black"/>
<path d="M168 252H172V256H168V252Z" fill="black"/>
<path d="M196 252H200V256H196V252Z" fill="black"/>
<path d="M224 252H228V256H224V252Z" fill="black"/>
<path d="M252 252H256V256H252V252Z" fill="black"/>
</svg>
