<svg width="50" height="50" viewBox="0 0 50 50" fill="none" xmlns="http://www.w3.org/2000/svg">
<path d="M40.6251 42.7083H9.37508C8.01385 42.725 6.70146 42.2017 5.72529 41.2528C4.74911 40.304 4.18869 39.007 4.16675 37.6458V12.3541C4.18869 10.993 4.74911 9.69599 5.72529 8.74715C6.70146 7.7983 8.01385 7.27494 9.37508 7.29165H18.9584C19.2661 7.29368 19.5696 7.36386 19.847 7.49714C20.1243 7.63042 20.3687 7.8235 20.5626 8.06248L25.9792 14.6875H40.5626C41.2418 14.6709 41.9176 14.789 42.551 15.0349C43.1844 15.2809 43.7628 15.6499 44.2528 16.1205C44.7428 16.5912 45.1348 17.1542 45.4061 17.7772C45.6774 18.4001 45.8226 19.0706 45.8334 19.75V37.6458C45.8115 39.007 45.2511 40.304 44.2749 41.2528C43.2987 42.2017 41.9863 42.725 40.6251 42.7083ZM8.33341 28.6666V37.6458C8.34126 37.7737 8.37465 37.8986 8.43162 38.0133C8.48859 38.1281 8.56797 38.2302 8.66508 38.3137C8.76219 38.3972 8.87505 38.4604 8.997 38.4996C9.11895 38.5387 9.24751 38.553 9.37508 38.5416H40.6251C40.7527 38.553 40.8812 38.5387 41.0032 38.4996C41.1251 38.4604 41.238 38.3972 41.3351 38.3137C41.4322 38.2302 41.5116 38.1281 41.5685 38.0133C41.6255 37.8986 41.6589 37.7737 41.6667 37.6458V19.75C41.6589 19.6221 41.6255 19.4972 41.5685 19.3825C41.5116 19.2677 41.4322 19.1656 41.3351 19.0821C41.238 18.9986 41.1251 18.9354 41.0032 18.8962C40.8812 18.8571 40.7527 18.8428 40.6251 18.8541H25.0001C24.6924 18.8521 24.3889 18.7819 24.1115 18.6487C23.8342 18.5154 23.5898 18.3223 23.3959 18.0833L17.9792 11.4583H9.37508C9.24751 11.4469 9.11895 11.4612 8.997 11.5004C8.87505 11.5396 8.76219 11.6028 8.66508 11.6863C8.56797 11.7698 8.48859 11.8719 8.43162 11.9866C8.37465 12.1013 8.34126 12.2263 8.33341 12.3541V28.6666Z" fill="#28384B"/>
</svg>
