<svg width="52" height="51" viewBox="0 0 52 51" fill="none" xmlns="http://www.w3.org/2000/svg">
<path fill-rule="evenodd" clip-rule="evenodd" d="M14.6432 6.77744C14.6432 3.03436 17.6776 0 21.4207 0H30.5788C34.322 0 37.3562 3.03438 37.3562 6.77744V11.4478H44.3165C48.0596 11.4478 51.0939 14.4822 51.0939 18.2253V25.0528C51.0945 25.0817 51.0945 25.1105 51.0939 25.1392V43.4102C51.0939 47.1533 48.0596 50.1876 44.3165 50.1876H7.68387C3.94081 50.1876 0.90643 47.1533 0.90643 43.4102V25.1391C0.905866 25.1104 0.905863 25.0817 0.90643 25.0529V18.2253C0.90643 14.4822 3.94079 11.4478 7.68387 11.4478H14.6432V6.77744ZM5.30317 27.7753V43.4102C5.30317 44.725 6.36902 45.7909 7.68387 45.7909H44.3165C45.6313 45.7909 46.6972 44.7251 46.6972 43.4102V27.7753L27.3293 31.6489L27.3286 31.6491C26.4517 31.8242 25.5487 31.8242 24.6717 31.6491L24.6711 31.6489L5.30317 27.7753ZM46.6972 23.2914L26.4676 27.3374L26.467 27.3376C26.1588 27.399 25.8415 27.399 25.5333 27.3376L25.5327 27.3374L5.30317 23.2914V18.2253C5.30317 16.9104 6.36905 15.8446 7.68387 15.8446H44.3165C45.6313 15.8446 46.6972 16.9104 46.6972 18.2253V23.2914ZM32.9595 6.77744V11.4478H19.04V6.77744C19.04 5.46262 20.1058 4.39674 21.4207 4.39674H30.5788C31.8937 4.39674 32.9595 5.46259 32.9595 6.77744Z" fill="#28384B"/>
</svg>
