<svg width="50" height="36" viewBox="0 0 50 36" fill="none" xmlns="http://www.w3.org/2000/svg">
<path d="M5.35714 0C2.42048 0 0 2.42048 0 5.35714V30.3571C0 33.2938 2.42048 35.7143 5.35714 35.7143H44.6429C47.5795 35.7143 50 33.2938 50 30.3571V5.35714C50 2.42048 47.5795 0 44.6429 0H5.35714ZM5.35714 3.57143H44.6429C45.6543 3.57143 46.4286 4.3457 46.4286 5.35714V30.3571C46.4286 31.3686 45.6543 32.1429 44.6429 32.1429H5.35714C4.3457 32.1429 3.57143 31.3686 3.57143 30.3571V5.35714C3.57143 4.3457 4.3457 3.57143 5.35714 3.57143ZM16.0714 7.14286C12.1443 7.14286 8.92857 10.3585 8.92857 14.2857C8.92857 16.2737 9.77958 18.0664 11.1049 19.3638C8.72628 20.9752 7.14286 23.7165 7.14286 26.7857H10.7143C10.7143 23.8072 13.0929 21.4286 16.0714 21.4286C19.0499 21.4286 21.4286 23.8072 21.4286 26.7857H25C25 23.7165 23.4166 20.9752 21.0379 19.3638C22.3633 18.0664 23.2143 16.2737 23.2143 14.2857C23.2143 10.3585 19.9986 7.14286 16.0714 7.14286ZM28.5714 8.92857V12.5H42.8571V8.92857H28.5714ZM16.0714 10.7143C18.0664 10.7143 19.6429 12.2907 19.6429 14.2857C19.6429 16.2807 18.0664 17.8571 16.0714 17.8571C14.0765 17.8571 12.5 16.2807 12.5 14.2857C12.5 12.2907 14.0765 10.7143 16.0714 10.7143ZM28.5714 16.0714V19.6429H42.8571V16.0714H28.5714ZM28.5714 23.2143V26.7857H37.5V23.2143H28.5714Z" fill="#28384B"/>
</svg>
