<svg width="56" height="45" viewBox="0 0 56 45" fill="none" xmlns="http://www.w3.org/2000/svg">
<path d="M5.77778 5.77778L21.3333 17.4444C24.5444 19.8528 26.1472 21.0556 28 21.0556C29.8528 21.0556 31.4556 19.8528 34.6667 17.4444L50.2222 5.77778M16.8889 3H39.1111C43.1167 3 45.8444 3.00556 47.8861 3.27778C49.8472 3.54444 50.7556 4.00833 51.3722 4.62778C51.9917 5.24444 52.4556 6.15556 52.7194 8.11389C52.9944 10.1556 53 12.8833 53 16.8889V28C53 32.0083 52.9944 34.7333 52.7222 36.775C52.4556 38.7361 51.9917 39.6444 51.3722 40.2611C50.7556 40.8806 49.8444 41.3444 47.8861 41.6083C45.8444 41.8833 43.1194 41.8889 39.1111 41.8889H16.8889C12.8833 41.8889 10.1556 41.8833 8.11389 41.6111C6.15278 41.3444 5.24444 40.8806 4.62778 40.2611C4.00833 39.6444 3.54444 38.7333 3.28056 36.775C3.00556 34.7333 3 32.0083 3 28V16.8889C3 12.8833 3.00556 10.1556 3.27778 8.11389C3.54444 6.15278 4.00833 5.24444 4.62778 4.62778C5.24444 4.00833 6.15556 3.54444 8.11389 3.28056C10.1556 3.00556 12.8833 3 16.8889 3Z" stroke="#28384B" stroke-width="5.85346"/>
</svg>
